<mxfile host="app.diagrams.net" modified="2022-10-12T17:42:19.648Z" agent="5.0 (X11)" etag="WezzoOzOkGgM82FDVwTg" version="18.0.7" type="github">
  <diagram id="UCIAREhvJPLPA_kBvdHy" name="Page-1">
    <mxGraphModel dx="670" dy="446" grid="1" gridSize="10" guides="1" tooltips="1" connect="1" arrows="1" fold="1" page="1" pageScale="1" pageWidth="827" pageHeight="1169" math="0" shadow="0">
      <root>
        <mxCell id="0" />
        <mxCell id="1" parent="0" />
        <mxCell id="qSMhbcWEPmDA-_BcbV4--6" style="edgeStyle=orthogonalEdgeStyle;rounded=0;orthogonalLoop=1;jettySize=auto;html=1;exitX=0.75;exitY=1;exitDx=0;exitDy=0;entryX=0.508;entryY=-0.079;entryDx=0;entryDy=0;entryPerimeter=0;" edge="1" parent="1" source="qSMhbcWEPmDA-_BcbV4--1" target="qSMhbcWEPmDA-_BcbV4--3">
          <mxGeometry relative="1" as="geometry" />
        </mxCell>
        <mxCell id="qSMhbcWEPmDA-_BcbV4--7" style="edgeStyle=orthogonalEdgeStyle;rounded=0;orthogonalLoop=1;jettySize=auto;html=1;exitX=0.25;exitY=1;exitDx=0;exitDy=0;entryX=0.5;entryY=0;entryDx=0;entryDy=0;" edge="1" parent="1" source="qSMhbcWEPmDA-_BcbV4--1" target="qSMhbcWEPmDA-_BcbV4--4">
          <mxGeometry relative="1" as="geometry" />
        </mxCell>
        <mxCell id="qSMhbcWEPmDA-_BcbV4--8" style="edgeStyle=orthogonalEdgeStyle;rounded=0;orthogonalLoop=1;jettySize=auto;html=1;exitX=0.5;exitY=1;exitDx=0;exitDy=0;entryX=0.5;entryY=0;entryDx=0;entryDy=0;" edge="1" parent="1" source="qSMhbcWEPmDA-_BcbV4--1" target="qSMhbcWEPmDA-_BcbV4--2">
          <mxGeometry relative="1" as="geometry" />
        </mxCell>
        <mxCell id="qSMhbcWEPmDA-_BcbV4--1" value="&lt;div&gt;Linux&lt;/div&gt;" style="rounded=0;whiteSpace=wrap;html=1;" vertex="1" parent="1">
          <mxGeometry x="340" y="120" width="120" height="40" as="geometry" />
        </mxCell>
        <mxCell id="qSMhbcWEPmDA-_BcbV4--22" style="edgeStyle=orthogonalEdgeStyle;rounded=0;orthogonalLoop=1;jettySize=auto;html=1;exitX=1;exitY=0.5;exitDx=0;exitDy=0;entryX=1;entryY=0.5;entryDx=0;entryDy=0;" edge="1" parent="1" source="qSMhbcWEPmDA-_BcbV4--2" target="qSMhbcWEPmDA-_BcbV4--20">
          <mxGeometry relative="1" as="geometry" />
        </mxCell>
        <mxCell id="qSMhbcWEPmDA-_BcbV4--25" style="edgeStyle=orthogonalEdgeStyle;rounded=0;orthogonalLoop=1;jettySize=auto;html=1;exitX=1;exitY=0.5;exitDx=0;exitDy=0;entryX=1;entryY=0.5;entryDx=0;entryDy=0;" edge="1" parent="1" source="qSMhbcWEPmDA-_BcbV4--2" target="qSMhbcWEPmDA-_BcbV4--23">
          <mxGeometry relative="1" as="geometry" />
        </mxCell>
        <mxCell id="qSMhbcWEPmDA-_BcbV4--26" style="edgeStyle=orthogonalEdgeStyle;rounded=0;orthogonalLoop=1;jettySize=auto;html=1;exitX=1;exitY=0.5;exitDx=0;exitDy=0;entryX=1;entryY=0.5;entryDx=0;entryDy=0;" edge="1" parent="1" source="qSMhbcWEPmDA-_BcbV4--2" target="qSMhbcWEPmDA-_BcbV4--24">
          <mxGeometry relative="1" as="geometry" />
        </mxCell>
        <mxCell id="qSMhbcWEPmDA-_BcbV4--2" value="&lt;div&gt;Arch&lt;/div&gt;" style="rounded=0;whiteSpace=wrap;html=1;" vertex="1" parent="1">
          <mxGeometry x="340" y="240" width="120" height="40" as="geometry" />
        </mxCell>
        <mxCell id="qSMhbcWEPmDA-_BcbV4--30" style="edgeStyle=orthogonalEdgeStyle;rounded=0;orthogonalLoop=1;jettySize=auto;html=1;exitX=0.25;exitY=1;exitDx=0;exitDy=0;entryX=0;entryY=0.5;entryDx=0;entryDy=0;" edge="1" parent="1" source="qSMhbcWEPmDA-_BcbV4--3" target="qSMhbcWEPmDA-_BcbV4--27">
          <mxGeometry relative="1" as="geometry">
            <Array as="points">
              <mxPoint x="530" y="320" />
            </Array>
          </mxGeometry>
        </mxCell>
        <mxCell id="qSMhbcWEPmDA-_BcbV4--31" style="edgeStyle=orthogonalEdgeStyle;rounded=0;orthogonalLoop=1;jettySize=auto;html=1;exitX=0.25;exitY=1;exitDx=0;exitDy=0;entryX=0;entryY=0.5;entryDx=0;entryDy=0;" edge="1" parent="1" source="qSMhbcWEPmDA-_BcbV4--3" target="qSMhbcWEPmDA-_BcbV4--28">
          <mxGeometry relative="1" as="geometry">
            <Array as="points">
              <mxPoint x="530" y="380" />
            </Array>
          </mxGeometry>
        </mxCell>
        <mxCell id="qSMhbcWEPmDA-_BcbV4--32" style="edgeStyle=orthogonalEdgeStyle;rounded=0;orthogonalLoop=1;jettySize=auto;html=1;exitX=0.25;exitY=1;exitDx=0;exitDy=0;entryX=0;entryY=0.5;entryDx=0;entryDy=0;" edge="1" parent="1" source="qSMhbcWEPmDA-_BcbV4--3" target="qSMhbcWEPmDA-_BcbV4--29">
          <mxGeometry relative="1" as="geometry">
            <Array as="points">
              <mxPoint x="530" y="441" />
            </Array>
          </mxGeometry>
        </mxCell>
        <mxCell id="qSMhbcWEPmDA-_BcbV4--3" value="&lt;div&gt;Red Hat&lt;/div&gt;" style="rounded=0;whiteSpace=wrap;html=1;" vertex="1" parent="1">
          <mxGeometry x="500" y="240" width="120" height="40" as="geometry" />
        </mxCell>
        <mxCell id="qSMhbcWEPmDA-_BcbV4--17" style="edgeStyle=orthogonalEdgeStyle;rounded=0;orthogonalLoop=1;jettySize=auto;html=1;exitX=0.75;exitY=1;exitDx=0;exitDy=0;" edge="1" parent="1" source="qSMhbcWEPmDA-_BcbV4--4">
          <mxGeometry relative="1" as="geometry">
            <mxPoint x="260" y="320" as="targetPoint" />
            <Array as="points">
              <mxPoint x="270" y="320" />
            </Array>
          </mxGeometry>
        </mxCell>
        <mxCell id="qSMhbcWEPmDA-_BcbV4--4" value="&lt;div&gt;Debian&lt;/div&gt;" style="rounded=0;whiteSpace=wrap;html=1;" vertex="1" parent="1">
          <mxGeometry x="180" y="240" width="120" height="40" as="geometry" />
        </mxCell>
        <mxCell id="qSMhbcWEPmDA-_BcbV4--18" style="edgeStyle=orthogonalEdgeStyle;rounded=0;orthogonalLoop=1;jettySize=auto;html=1;exitX=0.25;exitY=1;exitDx=0;exitDy=0;entryX=0;entryY=0.5;entryDx=0;entryDy=0;" edge="1" parent="1" source="qSMhbcWEPmDA-_BcbV4--9" target="qSMhbcWEPmDA-_BcbV4--15">
          <mxGeometry relative="1" as="geometry">
            <Array as="points">
              <mxPoint x="184" y="380" />
            </Array>
          </mxGeometry>
        </mxCell>
        <mxCell id="qSMhbcWEPmDA-_BcbV4--19" style="edgeStyle=orthogonalEdgeStyle;rounded=0;orthogonalLoop=1;jettySize=auto;html=1;exitX=0.25;exitY=1;exitDx=0;exitDy=0;" edge="1" parent="1" source="qSMhbcWEPmDA-_BcbV4--9">
          <mxGeometry relative="1" as="geometry">
            <mxPoint x="200" y="440" as="targetPoint" />
            <Array as="points">
              <mxPoint x="184" y="440" />
            </Array>
          </mxGeometry>
        </mxCell>
        <mxCell id="qSMhbcWEPmDA-_BcbV4--9" value="&lt;div&gt;Ubuntu&lt;/div&gt;" style="rounded=1;whiteSpace=wrap;html=1;" vertex="1" parent="1">
          <mxGeometry x="159" y="300" width="100" height="40" as="geometry" />
        </mxCell>
        <mxCell id="qSMhbcWEPmDA-_BcbV4--15" value="&lt;div&gt;Linux Mint&lt;/div&gt;" style="rounded=1;whiteSpace=wrap;html=1;" vertex="1" parent="1">
          <mxGeometry x="200" y="360" width="100" height="40" as="geometry" />
        </mxCell>
        <mxCell id="qSMhbcWEPmDA-_BcbV4--16" value="Pop!_OS" style="rounded=1;whiteSpace=wrap;html=1;" vertex="1" parent="1">
          <mxGeometry x="201" y="420" width="100" height="40" as="geometry" />
        </mxCell>
        <mxCell id="qSMhbcWEPmDA-_BcbV4--20" value="Endeavor OS" style="rounded=1;whiteSpace=wrap;html=1;" vertex="1" parent="1">
          <mxGeometry x="330" y="300" width="100" height="40" as="geometry" />
        </mxCell>
        <mxCell id="qSMhbcWEPmDA-_BcbV4--23" value="&lt;div&gt;Garuda&lt;/div&gt;" style="rounded=1;whiteSpace=wrap;html=1;" vertex="1" parent="1">
          <mxGeometry x="329" y="360" width="100" height="40" as="geometry" />
        </mxCell>
        <mxCell id="qSMhbcWEPmDA-_BcbV4--24" value="Manjaro" style="rounded=1;whiteSpace=wrap;html=1;" vertex="1" parent="1">
          <mxGeometry x="329" y="421" width="100" height="40" as="geometry" />
        </mxCell>
        <mxCell id="qSMhbcWEPmDA-_BcbV4--27" value="Fedora" style="rounded=1;whiteSpace=wrap;html=1;" vertex="1" parent="1">
          <mxGeometry x="551" y="300" width="100" height="40" as="geometry" />
        </mxCell>
        <mxCell id="qSMhbcWEPmDA-_BcbV4--28" value="Alma" style="rounded=1;whiteSpace=wrap;html=1;" vertex="1" parent="1">
          <mxGeometry x="551" y="360" width="100" height="40" as="geometry" />
        </mxCell>
        <mxCell id="qSMhbcWEPmDA-_BcbV4--29" value="&lt;div&gt;CentOS&lt;/div&gt;" style="rounded=1;whiteSpace=wrap;html=1;" vertex="1" parent="1">
          <mxGeometry x="551" y="421" width="100" height="40" as="geometry" />
        </mxCell>
      </root>
    </mxGraphModel>
  </diagram>
</mxfile>
